<?xml version="1.0" encoding="utf-8" standalone="no"?>
<!DOCTYPE svg PUBLIC "-//W3C//DTD SVG 1.1//EN"
  "http://www.w3.org/Graphics/SVG/1.1/DTD/svg11.dtd">
<svg xmlns:xlink="http://www.w3.org/1999/xlink" width="648pt" height="432pt" viewBox="0 0 648 432" xmlns="http://www.w3.org/2000/svg" version="1.1">
 <metadata>
  <rdf:RDF xmlns:dc="http://purl.org/dc/elements/1.1/" xmlns:cc="http://creativecommons.org/ns#" xmlns:rdf="http://www.w3.org/1999/02/22-rdf-syntax-ns#">
   <cc:Work>
    <dc:type rdf:resource="http://purl.org/dc/dcmitype/StillImage"/>
    <dc:date>2026-07-06T12:14:22.480064</dc:date>
    <dc:format>image/svg+xml</dc:format>
    <dc:creator>
     <cc:Agent>
      <dc:title>Matplotlib v3.10.9, https://matplotlib.org/</dc:title>
     </cc:Agent>
    </dc:creator>
   </cc:Work>
  </rdf:RDF>
 </metadata>
 <defs>
  <style type="text/css">*{stroke-linejoin: round; stroke-linecap: butt}</style>
 </defs>
 <g id="figure_1">
  <g id="patch_1">
   <path d="M 0 432 
L 648 432 
L 648 0 
L 0 0 
z
" style="fill: #ffffff"/>
  </g>
  <g id="axes_1">
   <g id="patch_2">
    <path d="M 54.02 386.728 
L 637.2 386.728 
L 637.2 26.88 
L 54.02 26.88 
z
" style="fill: #ffffff"/>
   </g>
   <g id="matplotlib.axis_1">
    <g id="xtick_1">
     <g id="line2d_1">
      <defs>
       <path id="m348cd67115" d="M 0 0 
L 0 3.5 
" style="stroke: #000000; stroke-width: 0.8"/>
      </defs>
      <g>
       <use xlink:href="#m348cd67115" x="181.520171" y="386.728" style="stroke: #000000; stroke-width: 0.8"/>
      </g>
     </g>
     <g id="text_1">
      <!-- $\mathdefault{10^{8}}$ -->
      <g transform="translate(172.720171 401.326437) scale(0.1 -0.1)">
       <defs>
        <path id="DejaVuSans-31" d="M 794 531 
L 1825 531 
L 1825 4091 
L 703 3866 
L 703 4441 
L 1819 4666 
L 2450 4666 
L 2450 531 
L 3481 531 
L 3481 0 
L 794 0 
L 794 531 
z
" transform="scale(0.015625)"/>
        <path id="DejaVuSans-30" d="M 2034 4250 
Q 1547 4250 1301 3770 
Q 1056 3291 1056 2328 
Q 1056 1369 1301 889 
Q 1547 409 2034 409 
Q 2525 409 2770 889 
Q 3016 1369 3016 2328 
Q 3016 3291 2770 3770 
Q 2525 4250 2034 4250 
z
M 2034 4750 
Q 2819 4750 3233 4129 
Q 3647 3509 3647 2328 
Q 3647 1150 3233 529 
Q 2819 -91 2034 -91 
Q 1250 -91 836 529 
Q 422 1150 422 2328 
Q 422 3509 836 4129 
Q 1250 4750 2034 4750 
z
" transform="scale(0.015625)"/>
        <path id="DejaVuSans-38" d="M 2034 2216 
Q 1584 2216 1326 1975 
Q 1069 1734 1069 1313 
Q 1069 891 1326 650 
Q 1584 409 2034 409 
Q 2484 409 2743 651 
Q 3003 894 3003 1313 
Q 3003 1734 2745 1975 
Q 2488 2216 2034 2216 
z
M 1403 2484 
Q 997 2584 770 2862 
Q 544 3141 544 3541 
Q 544 4100 942 4425 
Q 1341 4750 2034 4750 
Q 2731 4750 3128 4425 
Q 3525 4100 3525 3541 
Q 3525 3141 3298 2862 
Q 3072 2584 2669 2484 
Q 3125 2378 3379 2068 
Q 3634 1759 3634 1313 
Q 3634 634 3220 271 
Q 2806 -91 2034 -91 
Q 1263 -91 848 271 
Q 434 634 434 1313 
Q 434 1759 690 2068 
Q 947 2378 1403 2484 
z
M 1172 3481 
Q 1172 3119 1398 2916 
Q 1625 2713 2034 2713 
Q 2441 2713 2670 2916 
Q 2900 3119 2900 3481 
Q 2900 3844 2670 4047 
Q 2441 4250 2034 4250 
Q 1625 4250 1398 4047 
Q 1172 3844 1172 3481 
z
" transform="scale(0.015625)"/>
       </defs>
       <use xlink:href="#DejaVuSans-31" transform="translate(0 0.765625)"/>
       <use xlink:href="#DejaVuSans-30" transform="translate(63.623047 0.765625)"/>
       <use xlink:href="#DejaVuSans-38" transform="translate(128.203125 39.046875) scale(0.7)"/>
      </g>
     </g>
    </g>
    <g id="xtick_2">
     <g id="line2d_2">
      <g>
       <use xlink:href="#m348cd67115" x="373.001212" y="386.728" style="stroke: #000000; stroke-width: 0.8"/>
      </g>
     </g>
     <g id="text_2">
      <!-- $\mathdefault{10^{9}}$ -->
      <g transform="translate(364.201212 401.326437) scale(0.1 -0.1)">
       <defs>
        <path id="DejaVuSans-39" d="M 703 97 
L 703 672 
Q 941 559 1184 500 
Q 1428 441 1663 441 
Q 2288 441 2617 861 
Q 2947 1281 2994 2138 
Q 2813 1869 2534 1725 
Q 2256 1581 1919 1581 
Q 1219 1581 811 2004 
Q 403 2428 403 3163 
Q 403 3881 828 4315 
Q 1253 4750 1959 4750 
Q 2769 4750 3195 4129 
Q 3622 3509 3622 2328 
Q 3622 1225 3098 567 
Q 2575 -91 1691 -91 
Q 1453 -91 1209 -44 
Q 966 3 703 97 
z
M 1959 2075 
Q 2384 2075 2632 2365 
Q 2881 2656 2881 3163 
Q 2881 3666 2632 3958 
Q 2384 4250 1959 4250 
Q 1534 4250 1286 3958 
Q 1038 3666 1038 3163 
Q 1038 2656 1286 2365 
Q 1534 2075 1959 2075 
z
" transform="scale(0.015625)"/>
       </defs>
       <use xlink:href="#DejaVuSans-31" transform="translate(0 0.765625)"/>
       <use xlink:href="#DejaVuSans-30" transform="translate(63.623047 0.765625)"/>
       <use xlink:href="#DejaVuSans-39" transform="translate(128.203125 39.046875) scale(0.7)"/>
      </g>
     </g>
    </g>
    <g id="xtick_3">
     <g id="line2d_3">
      <g>
       <use xlink:href="#m348cd67115" x="564.482253" y="386.728" style="stroke: #000000; stroke-width: 0.8"/>
      </g>
     </g>
     <g id="text_3">
      <!-- $\mathdefault{10^{10}}$ -->
      <g transform="translate(553.432253 401.326437) scale(0.1 -0.1)">
       <use xlink:href="#DejaVuSans-31" transform="translate(0 0.765625)"/>
       <use xlink:href="#DejaVuSans-30" transform="translate(63.623047 0.765625)"/>
       <use xlink:href="#DejaVuSans-31" transform="translate(128.203125 39.046875) scale(0.7)"/>
       <use xlink:href="#DejaVuSans-30" transform="translate(172.739258 39.046875) scale(0.7)"/>
      </g>
     </g>
    </g>
    <g id="xtick_4">
     <g id="line2d_4">
      <defs>
       <path id="m97fe2cc0b3" d="M 0 0 
L 0 2 
" style="stroke: #000000; stroke-width: 0.6"/>
      </defs>
      <g>
       <use xlink:href="#m97fe2cc0b3" x="81.398804" y="386.728" style="stroke: #000000; stroke-width: 0.6"/>
      </g>
     </g>
    </g>
    <g id="xtick_5">
     <g id="line2d_5">
      <g>
       <use xlink:href="#m97fe2cc0b3" x="105.322203" y="386.728" style="stroke: #000000; stroke-width: 0.6"/>
      </g>
     </g>
    </g>
    <g id="xtick_6">
     <g id="line2d_6">
      <g>
       <use xlink:href="#m97fe2cc0b3" x="123.878633" y="386.728" style="stroke: #000000; stroke-width: 0.6"/>
      </g>
     </g>
    </g>
    <g id="xtick_7">
     <g id="line2d_7">
      <g>
       <use xlink:href="#m97fe2cc0b3" x="139.040341" y="386.728" style="stroke: #000000; stroke-width: 0.6"/>
      </g>
     </g>
    </g>
    <g id="xtick_8">
     <g id="line2d_8">
      <g>
       <use xlink:href="#m97fe2cc0b3" x="151.859382" y="386.728" style="stroke: #000000; stroke-width: 0.6"/>
      </g>
     </g>
    </g>
    <g id="xtick_9">
     <g id="line2d_9">
      <g>
       <use xlink:href="#m97fe2cc0b3" x="162.96374" y="386.728" style="stroke: #000000; stroke-width: 0.6"/>
      </g>
     </g>
    </g>
    <g id="xtick_10">
     <g id="line2d_10">
      <g>
       <use xlink:href="#m97fe2cc0b3" x="172.758479" y="386.728" style="stroke: #000000; stroke-width: 0.6"/>
      </g>
     </g>
    </g>
    <g id="xtick_11">
     <g id="line2d_11">
      <g>
       <use xlink:href="#m97fe2cc0b3" x="239.161708" y="386.728" style="stroke: #000000; stroke-width: 0.6"/>
      </g>
     </g>
    </g>
    <g id="xtick_12">
     <g id="line2d_12">
      <g>
       <use xlink:href="#m97fe2cc0b3" x="272.879845" y="386.728" style="stroke: #000000; stroke-width: 0.6"/>
      </g>
     </g>
    </g>
    <g id="xtick_13">
     <g id="line2d_13">
      <g>
       <use xlink:href="#m97fe2cc0b3" x="296.803245" y="386.728" style="stroke: #000000; stroke-width: 0.6"/>
      </g>
     </g>
    </g>
    <g id="xtick_14">
     <g id="line2d_14">
      <g>
       <use xlink:href="#m97fe2cc0b3" x="315.359675" y="386.728" style="stroke: #000000; stroke-width: 0.6"/>
      </g>
     </g>
    </g>
    <g id="xtick_15">
     <g id="line2d_15">
      <g>
       <use xlink:href="#m97fe2cc0b3" x="330.521382" y="386.728" style="stroke: #000000; stroke-width: 0.6"/>
      </g>
     </g>
    </g>
    <g id="xtick_16">
     <g id="line2d_16">
      <g>
       <use xlink:href="#m97fe2cc0b3" x="343.340423" y="386.728" style="stroke: #000000; stroke-width: 0.6"/>
      </g>
     </g>
    </g>
    <g id="xtick_17">
     <g id="line2d_17">
      <g>
       <use xlink:href="#m97fe2cc0b3" x="354.444782" y="386.728" style="stroke: #000000; stroke-width: 0.6"/>
      </g>
     </g>
    </g>
    <g id="xtick_18">
     <g id="line2d_18">
      <g>
       <use xlink:href="#m97fe2cc0b3" x="364.23952" y="386.728" style="stroke: #000000; stroke-width: 0.6"/>
      </g>
     </g>
    </g>
    <g id="xtick_19">
     <g id="line2d_19">
      <g>
       <use xlink:href="#m97fe2cc0b3" x="430.642749" y="386.728" style="stroke: #000000; stroke-width: 0.6"/>
      </g>
     </g>
    </g>
    <g id="xtick_20">
     <g id="line2d_20">
      <g>
       <use xlink:href="#m97fe2cc0b3" x="464.360887" y="386.728" style="stroke: #000000; stroke-width: 0.6"/>
      </g>
     </g>
    </g>
    <g id="xtick_21">
     <g id="line2d_21">
      <g>
       <use xlink:href="#m97fe2cc0b3" x="488.284286" y="386.728" style="stroke: #000000; stroke-width: 0.6"/>
      </g>
     </g>
    </g>
    <g id="xtick_22">
     <g id="line2d_22">
      <g>
       <use xlink:href="#m97fe2cc0b3" x="506.840716" y="386.728" style="stroke: #000000; stroke-width: 0.6"/>
      </g>
     </g>
    </g>
    <g id="xtick_23">
     <g id="line2d_23">
      <g>
       <use xlink:href="#m97fe2cc0b3" x="522.002424" y="386.728" style="stroke: #000000; stroke-width: 0.6"/>
      </g>
     </g>
    </g>
    <g id="xtick_24">
     <g id="line2d_24">
      <g>
       <use xlink:href="#m97fe2cc0b3" x="534.821465" y="386.728" style="stroke: #000000; stroke-width: 0.6"/>
      </g>
     </g>
    </g>
    <g id="xtick_25">
     <g id="line2d_25">
      <g>
       <use xlink:href="#m97fe2cc0b3" x="545.925823" y="386.728" style="stroke: #000000; stroke-width: 0.6"/>
      </g>
     </g>
    </g>
    <g id="xtick_26">
     <g id="line2d_26">
      <g>
       <use xlink:href="#m97fe2cc0b3" x="555.720561" y="386.728" style="stroke: #000000; stroke-width: 0.6"/>
      </g>
     </g>
    </g>
    <g id="xtick_27">
     <g id="line2d_27">
      <g>
       <use xlink:href="#m97fe2cc0b3" x="622.12379" y="386.728" style="stroke: #000000; stroke-width: 0.6"/>
      </g>
     </g>
    </g>
    <g id="text_4">
     <!-- File size [bytes] -->
     <g transform="translate(306.692813 415.004563) scale(0.1 -0.1)">
      <defs>
       <path id="DejaVuSans-46" d="M 628 4666 
L 3309 4666 
L 3309 4134 
L 1259 4134 
L 1259 2759 
L 3109 2759 
L 3109 2228 
L 1259 2228 
L 1259 0 
L 628 0 
L 628 4666 
z
" transform="scale(0.015625)"/>
       <path id="DejaVuSans-69" d="M 603 3500 
L 1178 3500 
L 1178 0 
L 603 0 
L 603 3500 
z
M 603 4863 
L 1178 4863 
L 1178 4134 
L 603 4134 
L 603 4863 
z
" transform="scale(0.015625)"/>
       <path id="DejaVuSans-6c" d="M 603 4863 
L 1178 4863 
L 1178 0 
L 603 0 
L 603 4863 
z
" transform="scale(0.015625)"/>
       <path id="DejaVuSans-65" d="M 3597 1894 
L 3597 1613 
L 953 1613 
Q 991 1019 1311 708 
Q 1631 397 2203 397 
Q 2534 397 2845 478 
Q 3156 559 3463 722 
L 3463 178 
Q 3153 47 2828 -22 
Q 2503 -91 2169 -91 
Q 1331 -91 842 396 
Q 353 884 353 1716 
Q 353 2575 817 3079 
Q 1281 3584 2069 3584 
Q 2775 3584 3186 3129 
Q 3597 2675 3597 1894 
z
M 3022 2063 
Q 3016 2534 2758 2815 
Q 2500 3097 2075 3097 
Q 1594 3097 1305 2825 
Q 1016 2553 972 2059 
L 3022 2063 
z
" transform="scale(0.015625)"/>
       <path id="DejaVuSans-20" transform="scale(0.015625)"/>
       <path id="DejaVuSans-73" d="M 2834 3397 
L 2834 2853 
Q 2591 2978 2328 3040 
Q 2066 3103 1784 3103 
Q 1356 3103 1142 2972 
Q 928 2841 928 2578 
Q 928 2378 1081 2264 
Q 1234 2150 1697 2047 
L 1894 2003 
Q 2506 1872 2764 1633 
Q 3022 1394 3022 966 
Q 3022 478 2636 193 
Q 2250 -91 1575 -91 
Q 1294 -91 989 -36 
Q 684 19 347 128 
L 347 722 
Q 666 556 975 473 
Q 1284 391 1588 391 
Q 1994 391 2212 530 
Q 2431 669 2431 922 
Q 2431 1156 2273 1281 
Q 2116 1406 1581 1522 
L 1381 1569 
Q 847 1681 609 1914 
Q 372 2147 372 2553 
Q 372 3047 722 3315 
Q 1072 3584 1716 3584 
Q 2034 3584 2315 3537 
Q 2597 3491 2834 3397 
z
" transform="scale(0.015625)"/>
       <path id="DejaVuSans-7a" d="M 353 3500 
L 3084 3500 
L 3084 2975 
L 922 459 
L 3084 459 
L 3084 0 
L 275 0 
L 275 525 
L 2438 3041 
L 353 3041 
L 353 3500 
z
" transform="scale(0.015625)"/>
       <path id="DejaVuSans-5b" d="M 550 4863 
L 1875 4863 
L 1875 4416 
L 1125 4416 
L 1125 -397 
L 1875 -397 
L 1875 -844 
L 550 -844 
L 550 4863 
z
" transform="scale(0.015625)"/>
       <path id="DejaVuSans-62" d="M 3116 1747 
Q 3116 2381 2855 2742 
Q 2594 3103 2138 3103 
Q 1681 3103 1420 2742 
Q 1159 2381 1159 1747 
Q 1159 1113 1420 752 
Q 1681 391 2138 391 
Q 2594 391 2855 752 
Q 3116 1113 3116 1747 
z
M 1159 2969 
Q 1341 3281 1617 3432 
Q 1894 3584 2278 3584 
Q 2916 3584 3314 3078 
Q 3713 2572 3713 1747 
Q 3713 922 3314 415 
Q 2916 -91 2278 -91 
Q 1894 -91 1617 61 
Q 1341 213 1159 525 
L 1159 0 
L 581 0 
L 581 4863 
L 1159 4863 
L 1159 2969 
z
" transform="scale(0.015625)"/>
       <path id="DejaVuSans-79" d="M 2059 -325 
Q 1816 -950 1584 -1140 
Q 1353 -1331 966 -1331 
L 506 -1331 
L 506 -850 
L 844 -850 
Q 1081 -850 1212 -737 
Q 1344 -625 1503 -206 
L 1606 56 
L 191 3500 
L 800 3500 
L 1894 763 
L 2988 3500 
L 3597 3500 
L 2059 -325 
z
" transform="scale(0.015625)"/>
       <path id="DejaVuSans-74" d="M 1172 4494 
L 1172 3500 
L 2356 3500 
L 2356 3053 
L 1172 3053 
L 1172 1153 
Q 1172 725 1289 603 
Q 1406 481 1766 481 
L 2356 481 
L 2356 0 
L 1766 0 
Q 1100 0 847 248 
Q 594 497 594 1153 
L 594 3053 
L 172 3053 
L 172 3500 
L 594 3500 
L 594 4494 
L 1172 4494 
z
" transform="scale(0.015625)"/>
       <path id="DejaVuSans-5d" d="M 1947 4863 
L 1947 -844 
L 622 -844 
L 622 -397 
L 1369 -397 
L 1369 4416 
L 622 4416 
L 622 4863 
L 1947 4863 
z
" transform="scale(0.015625)"/>
      </defs>
      <use xlink:href="#DejaVuSans-46"/>
      <use xlink:href="#DejaVuSans-69" transform="translate(50.269531 0)"/>
      <use xlink:href="#DejaVuSans-6c" transform="translate(78.052734 0)"/>
      <use xlink:href="#DejaVuSans-65" transform="translate(105.835938 0)"/>
      <use xlink:href="#DejaVuSans-20" transform="translate(167.359375 0)"/>
      <use xlink:href="#DejaVuSans-73" transform="translate(199.146484 0)"/>
      <use xlink:href="#DejaVuSans-69" transform="translate(251.246094 0)"/>
      <use xlink:href="#DejaVuSans-7a" transform="translate(279.029297 0)"/>
      <use xlink:href="#DejaVuSans-65" transform="translate(331.519531 0)"/>
      <use xlink:href="#DejaVuSans-20" transform="translate(393.042969 0)"/>
      <use xlink:href="#DejaVuSans-5b" transform="translate(424.830078 0)"/>
      <use xlink:href="#DejaVuSans-62" transform="translate(463.84375 0)"/>
      <use xlink:href="#DejaVuSans-79" transform="translate(527.320312 0)"/>
      <use xlink:href="#DejaVuSans-74" transform="translate(586.5 0)"/>
      <use xlink:href="#DejaVuSans-65" transform="translate(625.708984 0)"/>
      <use xlink:href="#DejaVuSans-73" transform="translate(687.232422 0)"/>
      <use xlink:href="#DejaVuSans-5d" transform="translate(739.332031 0)"/>
     </g>
    </g>
   </g>
   <g id="matplotlib.axis_2">
    <g id="ytick_1">
     <g id="line2d_28">
      <defs>
       <path id="m93093ffa6c" d="M 0 0 
L -3.5 0 
" style="stroke: #000000; stroke-width: 0.8"/>
      </defs>
      <g>
       <use xlink:href="#m93093ffa6c" x="54.02" y="351.005384" style="stroke: #000000; stroke-width: 0.8"/>
      </g>
     </g>
     <g id="text_5">
      <!-- 0.02 -->
      <g transform="translate(24.754375 354.804603) scale(0.1 -0.1)">
       <defs>
        <path id="DejaVuSans-2e" d="M 684 794 
L 1344 794 
L 1344 0 
L 684 0 
L 684 794 
z
" transform="scale(0.015625)"/>
        <path id="DejaVuSans-32" d="M 1228 531 
L 3431 531 
L 3431 0 
L 469 0 
L 469 531 
Q 828 903 1448 1529 
Q 2069 2156 2228 2338 
Q 2531 2678 2651 2914 
Q 2772 3150 2772 3378 
Q 2772 3750 2511 3984 
Q 2250 4219 1831 4219 
Q 1534 4219 1204 4116 
Q 875 4013 500 3803 
L 500 4441 
Q 881 4594 1212 4672 
Q 1544 4750 1819 4750 
Q 2544 4750 2975 4387 
Q 3406 4025 3406 3419 
Q 3406 3131 3298 2873 
Q 3191 2616 2906 2266 
Q 2828 2175 2409 1742 
Q 1991 1309 1228 531 
z
" transform="scale(0.015625)"/>
       </defs>
       <use xlink:href="#DejaVuSans-30"/>
       <use xlink:href="#DejaVuSans-2e" transform="translate(63.623047 0)"/>
       <use xlink:href="#DejaVuSans-30" transform="translate(95.410156 0)"/>
       <use xlink:href="#DejaVuSans-32" transform="translate(159.033203 0)"/>
      </g>
     </g>
    </g>
    <g id="ytick_2">
     <g id="line2d_29">
      <g>
       <use xlink:href="#m93093ffa6c" x="54.02" y="291.418035" style="stroke: #000000; stroke-width: 0.8"/>
      </g>
     </g>
     <g id="text_6">
      <!-- 0.04 -->
      <g transform="translate(24.754375 295.217254) scale(0.1 -0.1)">
       <defs>
        <path id="DejaVuSans-34" d="M 2419 4116 
L 825 1625 
L 2419 1625 
L 2419 4116 
z
M 2253 4666 
L 3047 4666 
L 3047 1625 
L 3713 1625 
L 3713 1100 
L 3047 1100 
L 3047 0 
L 2419 0 
L 2419 1100 
L 313 1100 
L 313 1709 
L 2253 4666 
z
" transform="scale(0.015625)"/>
       </defs>
       <use xlink:href="#DejaVuSans-30"/>
       <use xlink:href="#DejaVuSans-2e" transform="translate(63.623047 0)"/>
       <use xlink:href="#DejaVuSans-30" transform="translate(95.410156 0)"/>
       <use xlink:href="#DejaVuSans-34" transform="translate(159.033203 0)"/>
      </g>
     </g>
    </g>
    <g id="ytick_3">
     <g id="line2d_30">
      <g>
       <use xlink:href="#m93093ffa6c" x="54.02" y="231.830687" style="stroke: #000000; stroke-width: 0.8"/>
      </g>
     </g>
     <g id="text_7">
      <!-- 0.06 -->
      <g transform="translate(24.754375 235.629905) scale(0.1 -0.1)">
       <defs>
        <path id="DejaVuSans-36" d="M 2113 2584 
Q 1688 2584 1439 2293 
Q 1191 2003 1191 1497 
Q 1191 994 1439 701 
Q 1688 409 2113 409 
Q 2538 409 2786 701 
Q 3034 994 3034 1497 
Q 3034 2003 2786 2293 
Q 2538 2584 2113 2584 
z
M 3366 4563 
L 3366 3988 
Q 3128 4100 2886 4159 
Q 2644 4219 2406 4219 
Q 1781 4219 1451 3797 
Q 1122 3375 1075 2522 
Q 1259 2794 1537 2939 
Q 1816 3084 2150 3084 
Q 2853 3084 3261 2657 
Q 3669 2231 3669 1497 
Q 3669 778 3244 343 
Q 2819 -91 2113 -91 
Q 1303 -91 875 529 
Q 447 1150 447 2328 
Q 447 3434 972 4092 
Q 1497 4750 2381 4750 
Q 2619 4750 2861 4703 
Q 3103 4656 3366 4563 
z
" transform="scale(0.015625)"/>
       </defs>
       <use xlink:href="#DejaVuSans-30"/>
       <use xlink:href="#DejaVuSans-2e" transform="translate(63.623047 0)"/>
       <use xlink:href="#DejaVuSans-30" transform="translate(95.410156 0)"/>
       <use xlink:href="#DejaVuSans-36" transform="translate(159.033203 0)"/>
      </g>
     </g>
    </g>
    <g id="ytick_4">
     <g id="line2d_31">
      <g>
       <use xlink:href="#m93093ffa6c" x="54.02" y="172.243338" style="stroke: #000000; stroke-width: 0.8"/>
      </g>
     </g>
     <g id="text_8">
      <!-- 0.08 -->
      <g transform="translate(24.754375 176.042556) scale(0.1 -0.1)">
       <use xlink:href="#DejaVuSans-30"/>
       <use xlink:href="#DejaVuSans-2e" transform="translate(63.623047 0)"/>
       <use xlink:href="#DejaVuSans-30" transform="translate(95.410156 0)"/>
       <use xlink:href="#DejaVuSans-38" transform="translate(159.033203 0)"/>
      </g>
     </g>
    </g>
    <g id="ytick_5">
     <g id="line2d_32">
      <g>
       <use xlink:href="#m93093ffa6c" x="54.02" y="112.655989" style="stroke: #000000; stroke-width: 0.8"/>
      </g>
     </g>
     <g id="text_9">
      <!-- 0.10 -->
      <g transform="translate(24.754375 116.455207) scale(0.1 -0.1)">
       <use xlink:href="#DejaVuSans-30"/>
       <use xlink:href="#DejaVuSans-2e" transform="translate(63.623047 0)"/>
       <use xlink:href="#DejaVuSans-31" transform="translate(95.410156 0)"/>
       <use xlink:href="#DejaVuSans-30" transform="translate(159.033203 0)"/>
      </g>
     </g>
    </g>
    <g id="ytick_6">
     <g id="line2d_33">
      <g>
       <use xlink:href="#m93093ffa6c" x="54.02" y="53.06864" style="stroke: #000000; stroke-width: 0.8"/>
      </g>
     </g>
     <g id="text_10">
      <!-- 0.12 -->
      <g transform="translate(24.754375 56.867859) scale(0.1 -0.1)">
       <use xlink:href="#DejaVuSans-30"/>
       <use xlink:href="#DejaVuSans-2e" transform="translate(63.623047 0)"/>
       <use xlink:href="#DejaVuSans-31" transform="translate(95.410156 0)"/>
       <use xlink:href="#DejaVuSans-32" transform="translate(159.033203 0)"/>
      </g>
     </g>
    </g>
    <g id="text_11">
     <!-- Compression ratio -->
     <g transform="translate(18.674688 252.362594) rotate(-90) scale(0.1 -0.1)">
      <defs>
       <path id="DejaVuSans-43" d="M 4122 4306 
L 4122 3641 
Q 3803 3938 3442 4084 
Q 3081 4231 2675 4231 
Q 1875 4231 1450 3742 
Q 1025 3253 1025 2328 
Q 1025 1406 1450 917 
Q 1875 428 2675 428 
Q 3081 428 3442 575 
Q 3803 722 4122 1019 
L 4122 359 
Q 3791 134 3420 21 
Q 3050 -91 2638 -91 
Q 1578 -91 968 557 
Q 359 1206 359 2328 
Q 359 3453 968 4101 
Q 1578 4750 2638 4750 
Q 3056 4750 3426 4639 
Q 3797 4528 4122 4306 
z
" transform="scale(0.015625)"/>
       <path id="DejaVuSans-6f" d="M 1959 3097 
Q 1497 3097 1228 2736 
Q 959 2375 959 1747 
Q 959 1119 1226 758 
Q 1494 397 1959 397 
Q 2419 397 2687 759 
Q 2956 1122 2956 1747 
Q 2956 2369 2687 2733 
Q 2419 3097 1959 3097 
z
M 1959 3584 
Q 2709 3584 3137 3096 
Q 3566 2609 3566 1747 
Q 3566 888 3137 398 
Q 2709 -91 1959 -91 
Q 1206 -91 779 398 
Q 353 888 353 1747 
Q 353 2609 779 3096 
Q 1206 3584 1959 3584 
z
" transform="scale(0.015625)"/>
       <path id="DejaVuSans-6d" d="M 3328 2828 
Q 3544 3216 3844 3400 
Q 4144 3584 4550 3584 
Q 5097 3584 5394 3201 
Q 5691 2819 5691 2113 
L 5691 0 
L 5113 0 
L 5113 2094 
Q 5113 2597 4934 2840 
Q 4756 3084 4391 3084 
Q 3944 3084 3684 2787 
Q 3425 2491 3425 1978 
L 3425 0 
L 2847 0 
L 2847 2094 
Q 2847 2600 2669 2842 
Q 2491 3084 2119 3084 
Q 1678 3084 1418 2786 
Q 1159 2488 1159 1978 
L 1159 0 
L 581 0 
L 581 3500 
L 1159 3500 
L 1159 2956 
Q 1356 3278 1631 3431 
Q 1906 3584 2284 3584 
Q 2666 3584 2933 3390 
Q 3200 3197 3328 2828 
z
" transform="scale(0.015625)"/>
       <path id="DejaVuSans-70" d="M 1159 525 
L 1159 -1331 
L 581 -1331 
L 581 3500 
L 1159 3500 
L 1159 2969 
Q 1341 3281 1617 3432 
Q 1894 3584 2278 3584 
Q 2916 3584 3314 3078 
Q 3713 2572 3713 1747 
Q 3713 922 3314 415 
Q 2916 -91 2278 -91 
Q 1894 -91 1617 61 
Q 1341 213 1159 525 
z
M 3116 1747 
Q 3116 2381 2855 2742 
Q 2594 3103 2138 3103 
Q 1681 3103 1420 2742 
Q 1159 2381 1159 1747 
Q 1159 1113 1420 752 
Q 1681 391 2138 391 
Q 2594 391 2855 752 
Q 3116 1113 3116 1747 
z
" transform="scale(0.015625)"/>
       <path id="DejaVuSans-72" d="M 2631 2963 
Q 2534 3019 2420 3045 
Q 2306 3072 2169 3072 
Q 1681 3072 1420 2755 
Q 1159 2438 1159 1844 
L 1159 0 
L 581 0 
L 581 3500 
L 1159 3500 
L 1159 2956 
Q 1341 3275 1631 3429 
Q 1922 3584 2338 3584 
Q 2397 3584 2469 3576 
Q 2541 3569 2628 3553 
L 2631 2963 
z
" transform="scale(0.015625)"/>
       <path id="DejaVuSans-6e" d="M 3513 2113 
L 3513 0 
L 2938 0 
L 2938 2094 
Q 2938 2591 2744 2837 
Q 2550 3084 2163 3084 
Q 1697 3084 1428 2787 
Q 1159 2491 1159 1978 
L 1159 0 
L 581 0 
L 581 3500 
L 1159 3500 
L 1159 2956 
Q 1366 3272 1645 3428 
Q 1925 3584 2291 3584 
Q 2894 3584 3203 3211 
Q 3513 2838 3513 2113 
z
" transform="scale(0.015625)"/>
       <path id="DejaVuSans-61" d="M 2194 1759 
Q 1497 1759 1228 1600 
Q 959 1441 959 1056 
Q 959 750 1161 570 
Q 1363 391 1709 391 
Q 2188 391 2477 730 
Q 2766 1069 2766 1631 
L 2766 1759 
L 2194 1759 
z
M 3341 1997 
L 3341 0 
L 2766 0 
L 2766 531 
Q 2569 213 2275 61 
Q 1981 -91 1556 -91 
Q 1019 -91 701 211 
Q 384 513 384 1019 
Q 384 1609 779 1909 
Q 1175 2209 1959 2209 
L 2766 2209 
L 2766 2266 
Q 2766 2663 2505 2880 
Q 2244 3097 1772 3097 
Q 1472 3097 1187 3025 
Q 903 2953 641 2809 
L 641 3341 
Q 956 3463 1253 3523 
Q 1550 3584 1831 3584 
Q 2591 3584 2966 3190 
Q 3341 2797 3341 1997 
z
" transform="scale(0.015625)"/>
      </defs>
      <use xlink:href="#DejaVuSans-43"/>
      <use xlink:href="#DejaVuSans-6f" transform="translate(69.824219 0)"/>
      <use xlink:href="#DejaVuSans-6d" transform="translate(131.005859 0)"/>
      <use xlink:href="#DejaVuSans-70" transform="translate(228.417969 0)"/>
      <use xlink:href="#DejaVuSans-72" transform="translate(291.894531 0)"/>
      <use xlink:href="#DejaVuSans-65" transform="translate(330.757812 0)"/>
      <use xlink:href="#DejaVuSans-73" transform="translate(392.28125 0)"/>
      <use xlink:href="#DejaVuSans-73" transform="translate(444.380859 0)"/>
      <use xlink:href="#DejaVuSans-69" transform="translate(496.480469 0)"/>
      <use xlink:href="#DejaVuSans-6f" transform="translate(524.263672 0)"/>
      <use xlink:href="#DejaVuSans-6e" transform="translate(585.445312 0)"/>
      <use xlink:href="#DejaVuSans-20" transform="translate(648.824219 0)"/>
      <use xlink:href="#DejaVuSans-72" transform="translate(680.611328 0)"/>
      <use xlink:href="#DejaVuSans-61" transform="translate(721.724609 0)"/>
      <use xlink:href="#DejaVuSans-74" transform="translate(783.003906 0)"/>
      <use xlink:href="#DejaVuSans-69" transform="translate(822.212891 0)"/>
      <use xlink:href="#DejaVuSans-6f" transform="translate(849.996094 0)"/>
     </g>
    </g>
   </g>
   <g id="line2d_34">
    <path d="M 80.528182 43.236727 
L 80.528182 43.236727 
L 195.811257 241.662599 
L 195.811257 241.662599 
L 311.094331 231.830687 
L 311.094331 231.830687 
L 426.377405 248.813081 
L 426.377405 248.813081 
" clip-path="url(#p7c2ffd86ce)" style="fill: none; stroke: #1f77b4; stroke-width: 1.5; stroke-linecap: square"/>
    <defs>
     <path id="m82f9620661" d="M 0 3 
C 0.795609 3 1.55874 2.683901 2.12132 2.12132 
C 2.683901 1.55874 3 0.795609 3 0 
C 3 -0.795609 2.683901 -1.55874 2.12132 -2.12132 
C 1.55874 -2.683901 0.795609 -3 0 -3 
C -0.795609 -3 -1.55874 -2.683901 -2.12132 -2.12132 
C -2.683901 -1.55874 -3 -0.795609 -3 0 
C -3 0.795609 -2.683901 1.55874 -2.12132 2.12132 
C -1.55874 2.683901 -0.795609 3 0 3 
z
" style="stroke: #1f77b4"/>
    </defs>
    <g clip-path="url(#p7c2ffd86ce)">
     <use xlink:href="#m82f9620661" x="80.528182" y="43.236727" style="fill: #1f77b4; stroke: #1f77b4"/>
     <use xlink:href="#m82f9620661" x="80.528182" y="43.236727" style="fill: #1f77b4; stroke: #1f77b4"/>
     <use xlink:href="#m82f9620661" x="195.811257" y="241.662599" style="fill: #1f77b4; stroke: #1f77b4"/>
     <use xlink:href="#m82f9620661" x="195.811257" y="241.662599" style="fill: #1f77b4; stroke: #1f77b4"/>
     <use xlink:href="#m82f9620661" x="311.094331" y="231.830687" style="fill: #1f77b4; stroke: #1f77b4"/>
     <use xlink:href="#m82f9620661" x="311.094331" y="231.830687" style="fill: #1f77b4; stroke: #1f77b4"/>
     <use xlink:href="#m82f9620661" x="426.377405" y="248.813081" style="fill: #1f77b4; stroke: #1f77b4"/>
     <use xlink:href="#m82f9620661" x="426.377405" y="248.813081" style="fill: #1f77b4; stroke: #1f77b4"/>
    </g>
   </g>
   <g id="line2d_35">
    <path d="M 276.719481 263.709918 
L 276.719481 263.709918 
L 392.002555 292.311846 
L 392.002555 292.311846 
L 507.285629 299.164391 
L 507.285629 299.164391 
" clip-path="url(#p7c2ffd86ce)" style="fill: none; stroke: #ff7f0e; stroke-width: 1.5; stroke-linecap: square"/>
    <defs>
     <path id="m1be655ee6f" d="M 0 3 
C 0.795609 3 1.55874 2.683901 2.12132 2.12132 
C 2.683901 1.55874 3 0.795609 3 0 
C 3 -0.795609 2.683901 -1.55874 2.12132 -2.12132 
C 1.55874 -2.683901 0.795609 -3 0 -3 
C -0.795609 -3 -1.55874 -2.683901 -2.12132 -2.12132 
C -2.683901 -1.55874 -3 -0.795609 -3 0 
C -3 0.795609 -2.683901 1.55874 -2.12132 2.12132 
C -1.55874 2.683901 -0.795609 3 0 3 
z
" style="stroke: #ff7f0e"/>
    </defs>
    <g clip-path="url(#p7c2ffd86ce)">
     <use xlink:href="#m1be655ee6f" x="276.719481" y="263.709918" style="fill: #ff7f0e; stroke: #ff7f0e"/>
     <use xlink:href="#m1be655ee6f" x="276.719481" y="263.709918" style="fill: #ff7f0e; stroke: #ff7f0e"/>
     <use xlink:href="#m1be655ee6f" x="392.002555" y="292.311846" style="fill: #ff7f0e; stroke: #ff7f0e"/>
     <use xlink:href="#m1be655ee6f" x="392.002555" y="292.311846" style="fill: #ff7f0e; stroke: #ff7f0e"/>
     <use xlink:href="#m1be655ee6f" x="507.285629" y="299.164391" style="fill: #ff7f0e; stroke: #ff7f0e"/>
     <use xlink:href="#m1be655ee6f" x="507.285629" y="299.164391" style="fill: #ff7f0e; stroke: #ff7f0e"/>
    </g>
   </g>
   <g id="line2d_36">
    <path d="M 233.064322 329.851875 
L 233.064322 329.851875 
L 348.347396 347.430143 
L 348.347396 347.430143 
L 463.630471 347.430143 
L 463.630471 347.430143 
L 578.913545 348.62189 
L 578.913545 348.62189 
" clip-path="url(#p7c2ffd86ce)" style="fill: none; stroke: #2ca02c; stroke-width: 1.5; stroke-linecap: square"/>
    <defs>
     <path id="m79d7bae368" d="M 0 3 
C 0.795609 3 1.55874 2.683901 2.12132 2.12132 
C 2.683901 1.55874 3 0.795609 3 0 
C 3 -0.795609 2.683901 -1.55874 2.12132 -2.12132 
C 1.55874 -2.683901 0.795609 -3 0 -3 
C -0.795609 -3 -1.55874 -2.683901 -2.12132 -2.12132 
C -2.683901 -1.55874 -3 -0.795609 -3 0 
C -3 0.795609 -2.683901 1.55874 -2.12132 2.12132 
C -1.55874 2.683901 -0.795609 3 0 3 
z
" style="stroke: #2ca02c"/>
    </defs>
    <g clip-path="url(#p7c2ffd86ce)">
     <use xlink:href="#m79d7bae368" x="233.064322" y="329.851875" style="fill: #2ca02c; stroke: #2ca02c"/>
     <use xlink:href="#m79d7bae368" x="233.064322" y="329.851875" style="fill: #2ca02c; stroke: #2ca02c"/>
     <use xlink:href="#m79d7bae368" x="348.347396" y="347.430143" style="fill: #2ca02c; stroke: #2ca02c"/>
     <use xlink:href="#m79d7bae368" x="348.347396" y="347.430143" style="fill: #2ca02c; stroke: #2ca02c"/>
     <use xlink:href="#m79d7bae368" x="463.630471" y="347.430143" style="fill: #2ca02c; stroke: #2ca02c"/>
     <use xlink:href="#m79d7bae368" x="463.630471" y="347.430143" style="fill: #2ca02c; stroke: #2ca02c"/>
     <use xlink:href="#m79d7bae368" x="578.913545" y="348.62189" style="fill: #2ca02c; stroke: #2ca02c"/>
     <use xlink:href="#m79d7bae368" x="578.913545" y="348.62189" style="fill: #2ca02c; stroke: #2ca02c"/>
    </g>
   </g>
   <g id="line2d_37">
    <path d="M 264.842596 341.471409 
L 264.842596 341.471409 
L 380.12567 347.430143 
L 380.12567 347.430143 
L 495.408744 353.686815 
L 495.408744 353.686815 
L 610.691818 351.005384 
L 610.691818 351.005384 
" clip-path="url(#p7c2ffd86ce)" style="fill: none; stroke: #d62728; stroke-width: 1.5; stroke-linecap: square"/>
    <defs>
     <path id="m0756a83604" d="M 0 3 
C 0.795609 3 1.55874 2.683901 2.12132 2.12132 
C 2.683901 1.55874 3 0.795609 3 0 
C 3 -0.795609 2.683901 -1.55874 2.12132 -2.12132 
C 1.55874 -2.683901 0.795609 -3 0 -3 
C -0.795609 -3 -1.55874 -2.683901 -2.12132 -2.12132 
C -2.683901 -1.55874 -3 -0.795609 -3 0 
C -3 0.795609 -2.683901 1.55874 -2.12132 2.12132 
C -1.55874 2.683901 -0.795609 3 0 3 
z
" style="stroke: #d62728"/>
    </defs>
    <g clip-path="url(#p7c2ffd86ce)">
     <use xlink:href="#m0756a83604" x="264.842596" y="341.471409" style="fill: #d62728; stroke: #d62728"/>
     <use xlink:href="#m0756a83604" x="264.842596" y="341.471409" style="fill: #d62728; stroke: #d62728"/>
     <use xlink:href="#m0756a83604" x="380.12567" y="347.430143" style="fill: #d62728; stroke: #d62728"/>
     <use xlink:href="#m0756a83604" x="380.12567" y="347.430143" style="fill: #d62728; stroke: #d62728"/>
     <use xlink:href="#m0756a83604" x="495.408744" y="353.686815" style="fill: #d62728; stroke: #d62728"/>
     <use xlink:href="#m0756a83604" x="495.408744" y="353.686815" style="fill: #d62728; stroke: #d62728"/>
     <use xlink:href="#m0756a83604" x="610.691818" y="351.005384" style="fill: #d62728; stroke: #d62728"/>
     <use xlink:href="#m0756a83604" x="610.691818" y="351.005384" style="fill: #d62728; stroke: #d62728"/>
    </g>
   </g>
   <g id="line2d_38">
    <path d="M 203.375517 362.029044 
L 203.375517 362.029044 
L 318.658592 370.371273 
L 318.658592 370.371273 
L 433.941666 365.604285 
L 433.941666 365.604285 
L 549.22474 351.005384 
L 549.22474 351.005384 
" clip-path="url(#p7c2ffd86ce)" style="fill: none; stroke: #9467bd; stroke-width: 1.5; stroke-linecap: square"/>
    <defs>
     <path id="ma6344f8ee4" d="M 0 3 
C 0.795609 3 1.55874 2.683901 2.12132 2.12132 
C 2.683901 1.55874 3 0.795609 3 0 
C 3 -0.795609 2.683901 -1.55874 2.12132 -2.12132 
C 1.55874 -2.683901 0.795609 -3 0 -3 
C -0.795609 -3 -1.55874 -2.683901 -2.12132 -2.12132 
C -2.683901 -1.55874 -3 -0.795609 -3 0 
C -3 0.795609 -2.683901 1.55874 -2.12132 2.12132 
C -1.55874 2.683901 -0.795609 3 0 3 
z
" style="stroke: #9467bd"/>
    </defs>
    <g clip-path="url(#p7c2ffd86ce)">
     <use xlink:href="#ma6344f8ee4" x="203.375517" y="362.029044" style="fill: #9467bd; stroke: #9467bd"/>
     <use xlink:href="#ma6344f8ee4" x="203.375517" y="362.029044" style="fill: #9467bd; stroke: #9467bd"/>
     <use xlink:href="#ma6344f8ee4" x="318.658592" y="370.371273" style="fill: #9467bd; stroke: #9467bd"/>
     <use xlink:href="#ma6344f8ee4" x="318.658592" y="370.371273" style="fill: #9467bd; stroke: #9467bd"/>
     <use xlink:href="#ma6344f8ee4" x="433.941666" y="365.604285" style="fill: #9467bd; stroke: #9467bd"/>
     <use xlink:href="#ma6344f8ee4" x="433.941666" y="365.604285" style="fill: #9467bd; stroke: #9467bd"/>
     <use xlink:href="#ma6344f8ee4" x="549.22474" y="351.005384" style="fill: #9467bd; stroke: #9467bd"/>
     <use xlink:href="#ma6344f8ee4" x="549.22474" y="351.005384" style="fill: #9467bd; stroke: #9467bd"/>
    </g>
   </g>
   <g id="patch_3">
    <path d="M 54.02 386.728 
L 54.02 26.88 
" style="fill: none; stroke: #000000; stroke-width: 0.8; stroke-linejoin: miter; stroke-linecap: square"/>
   </g>
   <g id="patch_4">
    <path d="M 637.2 386.728 
L 637.2 26.88 
" style="fill: none; stroke: #000000; stroke-width: 0.8; stroke-linejoin: miter; stroke-linecap: square"/>
   </g>
   <g id="patch_5">
    <path d="M 54.02 386.728 
L 637.2 386.728 
" style="fill: none; stroke: #000000; stroke-width: 0.8; stroke-linejoin: miter; stroke-linecap: square"/>
   </g>
   <g id="patch_6">
    <path d="M 54.02 26.88 
L 637.2 26.88 
" style="fill: none; stroke: #000000; stroke-width: 0.8; stroke-linejoin: miter; stroke-linecap: square"/>
   </g>
   <g id="text_12">
    <!-- 7zip -mx=5 -->
    <g transform="translate(310.855 20.88) scale(0.12 -0.12)">
     <defs>
      <path id="DejaVuSans-37" d="M 525 4666 
L 3525 4666 
L 3525 4397 
L 1831 0 
L 1172 0 
L 2766 4134 
L 525 4134 
L 525 4666 
z
" transform="scale(0.015625)"/>
      <path id="DejaVuSans-2d" d="M 313 2009 
L 1997 2009 
L 1997 1497 
L 313 1497 
L 313 2009 
z
" transform="scale(0.015625)"/>
      <path id="DejaVuSans-78" d="M 3513 3500 
L 2247 1797 
L 3578 0 
L 2900 0 
L 1881 1375 
L 863 0 
L 184 0 
L 1544 1831 
L 300 3500 
L 978 3500 
L 1906 2253 
L 2834 3500 
L 3513 3500 
z
" transform="scale(0.015625)"/>
      <path id="DejaVuSans-3d" d="M 678 2906 
L 4684 2906 
L 4684 2381 
L 678 2381 
L 678 2906 
z
M 678 1631 
L 4684 1631 
L 4684 1100 
L 678 1100 
L 678 1631 
z
" transform="scale(0.015625)"/>
      <path id="DejaVuSans-35" d="M 691 4666 
L 3169 4666 
L 3169 4134 
L 1269 4134 
L 1269 2991 
Q 1406 3038 1543 3061 
Q 1681 3084 1819 3084 
Q 2600 3084 3056 2656 
Q 3513 2228 3513 1497 
Q 3513 744 3044 326 
Q 2575 -91 1722 -91 
Q 1428 -91 1123 -41 
Q 819 9 494 109 
L 494 744 
Q 775 591 1075 516 
Q 1375 441 1709 441 
Q 2250 441 2565 725 
Q 2881 1009 2881 1497 
Q 2881 1984 2565 2268 
Q 2250 2553 1709 2553 
Q 1456 2553 1204 2497 
Q 953 2441 691 2322 
L 691 4666 
z
" transform="scale(0.015625)"/>
     </defs>
     <use xlink:href="#DejaVuSans-37"/>
     <use xlink:href="#DejaVuSans-7a" transform="translate(63.623047 0)"/>
     <use xlink:href="#DejaVuSans-69" transform="translate(116.113281 0)"/>
     <use xlink:href="#DejaVuSans-70" transform="translate(143.896484 0)"/>
     <use xlink:href="#DejaVuSans-20" transform="translate(207.373047 0)"/>
     <use xlink:href="#DejaVuSans-2d" transform="translate(239.160156 0)"/>
     <use xlink:href="#DejaVuSans-6d" transform="translate(275.244141 0)"/>
     <use xlink:href="#DejaVuSans-78" transform="translate(372.65625 0)"/>
     <use xlink:href="#DejaVuSans-3d" transform="translate(431.835938 0)"/>
     <use xlink:href="#DejaVuSans-35" transform="translate(515.625 0)"/>
    </g>
   </g>
   <g id="legend_1">
    <g id="patch_7">
     <path d="M 491.23375 97.815313 
L 631.6 97.815313 
Q 633.2 97.815313 633.2 96.215312 
L 633.2 32.48 
Q 633.2 30.88 631.6 30.88 
L 491.23375 30.88 
Q 489.63375 30.88 489.63375 32.48 
L 489.63375 96.215312 
Q 489.63375 97.815313 491.23375 97.815313 
z
" style="fill: #ffffff; opacity: 0.85; stroke: #cccccc; stroke-linejoin: miter"/>
    </g>
    <g id="text_13">
     <!-- Species -->
     <g transform="translate(544.096797 40.918594) scale(0.09 -0.09)">
      <defs>
       <path id="DejaVuSans-53" d="M 3425 4513 
L 3425 3897 
Q 3066 4069 2747 4153 
Q 2428 4238 2131 4238 
Q 1616 4238 1336 4038 
Q 1056 3838 1056 3469 
Q 1056 3159 1242 3001 
Q 1428 2844 1947 2747 
L 2328 2669 
Q 3034 2534 3370 2195 
Q 3706 1856 3706 1288 
Q 3706 609 3251 259 
Q 2797 -91 1919 -91 
Q 1588 -91 1214 -16 
Q 841 59 441 206 
L 441 856 
Q 825 641 1194 531 
Q 1563 422 1919 422 
Q 2459 422 2753 634 
Q 3047 847 3047 1241 
Q 3047 1584 2836 1778 
Q 2625 1972 2144 2069 
L 1759 2144 
Q 1053 2284 737 2584 
Q 422 2884 422 3419 
Q 422 4038 858 4394 
Q 1294 4750 2059 4750 
Q 2388 4750 2728 4690 
Q 3069 4631 3425 4513 
z
" transform="scale(0.015625)"/>
       <path id="DejaVuSans-63" d="M 3122 3366 
L 3122 2828 
Q 2878 2963 2633 3030 
Q 2388 3097 2138 3097 
Q 1578 3097 1268 2742 
Q 959 2388 959 1747 
Q 959 1106 1268 751 
Q 1578 397 2138 397 
Q 2388 397 2633 464 
Q 2878 531 3122 666 
L 3122 134 
Q 2881 22 2623 -34 
Q 2366 -91 2075 -91 
Q 1284 -91 818 406 
Q 353 903 353 1747 
Q 353 2603 823 3093 
Q 1294 3584 2113 3584 
Q 2378 3584 2631 3529 
Q 2884 3475 3122 3366 
z
" transform="scale(0.015625)"/>
      </defs>
      <use xlink:href="#DejaVuSans-53"/>
      <use xlink:href="#DejaVuSans-70" transform="translate(63.476562 0)"/>
      <use xlink:href="#DejaVuSans-65" transform="translate(126.953125 0)"/>
      <use xlink:href="#DejaVuSans-63" transform="translate(188.476562 0)"/>
      <use xlink:href="#DejaVuSans-69" transform="translate(243.457031 0)"/>
      <use xlink:href="#DejaVuSans-65" transform="translate(271.240234 0)"/>
      <use xlink:href="#DejaVuSans-73" transform="translate(332.763672 0)"/>
     </g>
    </g>
    <g id="line2d_39">
     <path d="M 492.83375 48.469063 
L 500.03375 48.469063 
L 507.23375 48.469063 
" style="fill: none; stroke: #1f77b4; stroke-width: 1.5; stroke-linecap: square"/>
     <g>
      <use xlink:href="#m82f9620661" x="500.03375" y="48.469063" style="fill: #1f77b4; stroke: #1f77b4"/>
     </g>
    </g>
    <g id="text_14">
     <!-- achromobacter_xylosoxidans -->
     <g transform="translate(513.63375 51.269063) scale(0.08 -0.08)">
      <defs>
       <path id="DejaVuSans-68" d="M 3513 2113 
L 3513 0 
L 2938 0 
L 2938 2094 
Q 2938 2591 2744 2837 
Q 2550 3084 2163 3084 
Q 1697 3084 1428 2787 
Q 1159 2491 1159 1978 
L 1159 0 
L 581 0 
L 581 4863 
L 1159 4863 
L 1159 2956 
Q 1366 3272 1645 3428 
Q 1925 3584 2291 3584 
Q 2894 3584 3203 3211 
Q 3513 2838 3513 2113 
z
" transform="scale(0.015625)"/>
       <path id="DejaVuSans-5f" d="M 3263 -1063 
L 3263 -1509 
L -63 -1509 
L -63 -1063 
L 3263 -1063 
z
" transform="scale(0.015625)"/>
       <path id="DejaVuSans-64" d="M 2906 2969 
L 2906 4863 
L 3481 4863 
L 3481 0 
L 2906 0 
L 2906 525 
Q 2725 213 2448 61 
Q 2172 -91 1784 -91 
Q 1150 -91 751 415 
Q 353 922 353 1747 
Q 353 2572 751 3078 
Q 1150 3584 1784 3584 
Q 2172 3584 2448 3432 
Q 2725 3281 2906 2969 
z
M 947 1747 
Q 947 1113 1208 752 
Q 1469 391 1925 391 
Q 2381 391 2643 752 
Q 2906 1113 2906 1747 
Q 2906 2381 2643 2742 
Q 2381 3103 1925 3103 
Q 1469 3103 1208 2742 
Q 947 2381 947 1747 
z
" transform="scale(0.015625)"/>
      </defs>
      <use xlink:href="#DejaVuSans-61"/>
      <use xlink:href="#DejaVuSans-63" transform="translate(61.279297 0)"/>
      <use xlink:href="#DejaVuSans-68" transform="translate(116.259766 0)"/>
      <use xlink:href="#DejaVuSans-72" transform="translate(179.638672 0)"/>
      <use xlink:href="#DejaVuSans-6f" transform="translate(218.501953 0)"/>
      <use xlink:href="#DejaVuSans-6d" transform="translate(279.683594 0)"/>
      <use xlink:href="#DejaVuSans-6f" transform="translate(377.095703 0)"/>
      <use xlink:href="#DejaVuSans-62" transform="translate(438.277344 0)"/>
      <use xlink:href="#DejaVuSans-61" transform="translate(501.753906 0)"/>
      <use xlink:href="#DejaVuSans-63" transform="translate(563.033203 0)"/>
      <use xlink:href="#DejaVuSans-74" transform="translate(618.013672 0)"/>
      <use xlink:href="#DejaVuSans-65" transform="translate(657.222656 0)"/>
      <use xlink:href="#DejaVuSans-72" transform="translate(718.746094 0)"/>
      <use xlink:href="#DejaVuSans-5f" transform="translate(759.859375 0)"/>
      <use xlink:href="#DejaVuSans-78" transform="translate(809.859375 0)"/>
      <use xlink:href="#DejaVuSans-79" transform="translate(869.039062 0)"/>
      <use xlink:href="#DejaVuSans-6c" transform="translate(928.21875 0)"/>
      <use xlink:href="#DejaVuSans-6f" transform="translate(956.001953 0)"/>
      <use xlink:href="#DejaVuSans-73" transform="translate(1017.183594 0)"/>
      <use xlink:href="#DejaVuSans-6f" transform="translate(1069.283203 0)"/>
      <use xlink:href="#DejaVuSans-78" transform="translate(1127.339844 0)"/>
      <use xlink:href="#DejaVuSans-69" transform="translate(1186.519531 0)"/>
      <use xlink:href="#DejaVuSans-64" transform="translate(1214.302734 0)"/>
      <use xlink:href="#DejaVuSans-61" transform="translate(1277.779297 0)"/>
      <use xlink:href="#DejaVuSans-6e" transform="translate(1339.058594 0)"/>
      <use xlink:href="#DejaVuSans-73" transform="translate(1402.4375 0)"/>
     </g>
    </g>
    <g id="line2d_40">
     <path d="M 492.83375 58.834063 
L 500.03375 58.834063 
L 507.23375 58.834063 
" style="fill: none; stroke: #ff7f0e; stroke-width: 1.5; stroke-linecap: square"/>
     <g>
      <use xlink:href="#m1be655ee6f" x="500.03375" y="58.834063" style="fill: #ff7f0e; stroke: #ff7f0e"/>
     </g>
    </g>
    <g id="text_15">
     <!-- escherichia_coli -->
     <g transform="translate(513.63375 61.634063) scale(0.08 -0.08)">
      <use xlink:href="#DejaVuSans-65"/>
      <use xlink:href="#DejaVuSans-73" transform="translate(61.523438 0)"/>
      <use xlink:href="#DejaVuSans-63" transform="translate(113.623047 0)"/>
      <use xlink:href="#DejaVuSans-68" transform="translate(168.603516 0)"/>
      <use xlink:href="#DejaVuSans-65" transform="translate(231.982422 0)"/>
      <use xlink:href="#DejaVuSans-72" transform="translate(293.505859 0)"/>
      <use xlink:href="#DejaVuSans-69" transform="translate(334.619141 0)"/>
      <use xlink:href="#DejaVuSans-63" transform="translate(362.402344 0)"/>
      <use xlink:href="#DejaVuSans-68" transform="translate(417.382812 0)"/>
      <use xlink:href="#DejaVuSans-69" transform="translate(480.761719 0)"/>
      <use xlink:href="#DejaVuSans-61" transform="translate(508.544922 0)"/>
      <use xlink:href="#DejaVuSans-5f" transform="translate(569.824219 0)"/>
      <use xlink:href="#DejaVuSans-63" transform="translate(619.824219 0)"/>
      <use xlink:href="#DejaVuSans-6f" transform="translate(674.804688 0)"/>
      <use xlink:href="#DejaVuSans-6c" transform="translate(735.986328 0)"/>
      <use xlink:href="#DejaVuSans-69" transform="translate(763.769531 0)"/>
     </g>
    </g>
    <g id="line2d_41">
     <path d="M 492.83375 69.199063 
L 500.03375 69.199063 
L 507.23375 69.199063 
" style="fill: none; stroke: #2ca02c; stroke-width: 1.5; stroke-linecap: square"/>
     <g>
      <use xlink:href="#m79d7bae368" x="500.03375" y="69.199063" style="fill: #2ca02c; stroke: #2ca02c"/>
     </g>
    </g>
    <g id="text_16">
     <!-- listeria_monocytogenes -->
     <g transform="translate(513.63375 71.999063) scale(0.08 -0.08)">
      <defs>
       <path id="DejaVuSans-67" d="M 2906 1791 
Q 2906 2416 2648 2759 
Q 2391 3103 1925 3103 
Q 1463 3103 1205 2759 
Q 947 2416 947 1791 
Q 947 1169 1205 825 
Q 1463 481 1925 481 
Q 2391 481 2648 825 
Q 2906 1169 2906 1791 
z
M 3481 434 
Q 3481 -459 3084 -895 
Q 2688 -1331 1869 -1331 
Q 1566 -1331 1297 -1286 
Q 1028 -1241 775 -1147 
L 775 -588 
Q 1028 -725 1275 -790 
Q 1522 -856 1778 -856 
Q 2344 -856 2625 -561 
Q 2906 -266 2906 331 
L 2906 616 
Q 2728 306 2450 153 
Q 2172 0 1784 0 
Q 1141 0 747 490 
Q 353 981 353 1791 
Q 353 2603 747 3093 
Q 1141 3584 1784 3584 
Q 2172 3584 2450 3431 
Q 2728 3278 2906 2969 
L 2906 3500 
L 3481 3500 
L 3481 434 
z
" transform="scale(0.015625)"/>
      </defs>
      <use xlink:href="#DejaVuSans-6c"/>
      <use xlink:href="#DejaVuSans-69" transform="translate(27.783203 0)"/>
      <use xlink:href="#DejaVuSans-73" transform="translate(55.566406 0)"/>
      <use xlink:href="#DejaVuSans-74" transform="translate(107.666016 0)"/>
      <use xlink:href="#DejaVuSans-65" transform="translate(146.875 0)"/>
      <use xlink:href="#DejaVuSans-72" transform="translate(208.398438 0)"/>
      <use xlink:href="#DejaVuSans-69" transform="translate(249.511719 0)"/>
      <use xlink:href="#DejaVuSans-61" transform="translate(277.294922 0)"/>
      <use xlink:href="#DejaVuSans-5f" transform="translate(338.574219 0)"/>
      <use xlink:href="#DejaVuSans-6d" transform="translate(388.574219 0)"/>
      <use xlink:href="#DejaVuSans-6f" transform="translate(485.986328 0)"/>
      <use xlink:href="#DejaVuSans-6e" transform="translate(547.167969 0)"/>
      <use xlink:href="#DejaVuSans-6f" transform="translate(610.546875 0)"/>
      <use xlink:href="#DejaVuSans-63" transform="translate(671.728516 0)"/>
      <use xlink:href="#DejaVuSans-79" transform="translate(726.708984 0)"/>
      <use xlink:href="#DejaVuSans-74" transform="translate(785.888672 0)"/>
      <use xlink:href="#DejaVuSans-6f" transform="translate(825.097656 0)"/>
      <use xlink:href="#DejaVuSans-67" transform="translate(886.279297 0)"/>
      <use xlink:href="#DejaVuSans-65" transform="translate(949.755859 0)"/>
      <use xlink:href="#DejaVuSans-6e" transform="translate(1011.279297 0)"/>
      <use xlink:href="#DejaVuSans-65" transform="translate(1074.658203 0)"/>
      <use xlink:href="#DejaVuSans-73" transform="translate(1136.181641 0)"/>
     </g>
    </g>
    <g id="line2d_42">
     <path d="M 492.83375 79.564063 
L 500.03375 79.564063 
L 507.23375 79.564063 
" style="fill: none; stroke: #d62728; stroke-width: 1.5; stroke-linecap: square"/>
     <g>
      <use xlink:href="#m0756a83604" x="500.03375" y="79.564063" style="fill: #d62728; stroke: #d62728"/>
     </g>
    </g>
    <g id="text_17">
     <!-- mycobacterium_tuberculosis -->
     <g transform="translate(513.63375 82.364063) scale(0.08 -0.08)">
      <defs>
       <path id="DejaVuSans-75" d="M 544 1381 
L 544 3500 
L 1119 3500 
L 1119 1403 
Q 1119 906 1312 657 
Q 1506 409 1894 409 
Q 2359 409 2629 706 
Q 2900 1003 2900 1516 
L 2900 3500 
L 3475 3500 
L 3475 0 
L 2900 0 
L 2900 538 
Q 2691 219 2414 64 
Q 2138 -91 1772 -91 
Q 1169 -91 856 284 
Q 544 659 544 1381 
z
M 1991 3584 
L 1991 3584 
z
" transform="scale(0.015625)"/>
      </defs>
      <use xlink:href="#DejaVuSans-6d"/>
      <use xlink:href="#DejaVuSans-79" transform="translate(97.412109 0)"/>
      <use xlink:href="#DejaVuSans-63" transform="translate(156.591797 0)"/>
      <use xlink:href="#DejaVuSans-6f" transform="translate(211.572266 0)"/>
      <use xlink:href="#DejaVuSans-62" transform="translate(272.753906 0)"/>
      <use xlink:href="#DejaVuSans-61" transform="translate(336.230469 0)"/>
      <use xlink:href="#DejaVuSans-63" transform="translate(397.509766 0)"/>
      <use xlink:href="#DejaVuSans-74" transform="translate(452.490234 0)"/>
      <use xlink:href="#DejaVuSans-65" transform="translate(491.699219 0)"/>
      <use xlink:href="#DejaVuSans-72" transform="translate(553.222656 0)"/>
      <use xlink:href="#DejaVuSans-69" transform="translate(594.335938 0)"/>
      <use xlink:href="#DejaVuSans-75" transform="translate(622.119141 0)"/>
      <use xlink:href="#DejaVuSans-6d" transform="translate(685.498047 0)"/>
      <use xlink:href="#DejaVuSans-5f" transform="translate(782.910156 0)"/>
      <use xlink:href="#DejaVuSans-74" transform="translate(832.910156 0)"/>
      <use xlink:href="#DejaVuSans-75" transform="translate(872.119141 0)"/>
      <use xlink:href="#DejaVuSans-62" transform="translate(935.498047 0)"/>
      <use xlink:href="#DejaVuSans-65" transform="translate(998.974609 0)"/>
      <use xlink:href="#DejaVuSans-72" transform="translate(1060.498047 0)"/>
      <use xlink:href="#DejaVuSans-63" transform="translate(1099.361328 0)"/>
      <use xlink:href="#DejaVuSans-75" transform="translate(1154.341797 0)"/>
      <use xlink:href="#DejaVuSans-6c" transform="translate(1217.720703 0)"/>
      <use xlink:href="#DejaVuSans-6f" transform="translate(1245.503906 0)"/>
      <use xlink:href="#DejaVuSans-73" transform="translate(1306.685547 0)"/>
      <use xlink:href="#DejaVuSans-69" transform="translate(1358.785156 0)"/>
      <use xlink:href="#DejaVuSans-73" transform="translate(1386.568359 0)"/>
     </g>
    </g>
    <g id="line2d_43">
     <path d="M 492.83375 89.929063 
L 500.03375 89.929063 
L 507.23375 89.929063 
" style="fill: none; stroke: #9467bd; stroke-width: 1.5; stroke-linecap: square"/>
     <g>
      <use xlink:href="#ma6344f8ee4" x="500.03375" y="89.929063" style="fill: #9467bd; stroke: #9467bd"/>
     </g>
    </g>
    <g id="text_18">
     <!-- streptococcus_pneumoniae -->
     <g transform="translate(513.63375 92.729062) scale(0.08 -0.08)">
      <use xlink:href="#DejaVuSans-73"/>
      <use xlink:href="#DejaVuSans-74" transform="translate(52.099609 0)"/>
      <use xlink:href="#DejaVuSans-72" transform="translate(91.308594 0)"/>
      <use xlink:href="#DejaVuSans-65" transform="translate(130.171875 0)"/>
      <use xlink:href="#DejaVuSans-70" transform="translate(191.695312 0)"/>
      <use xlink:href="#DejaVuSans-74" transform="translate(255.171875 0)"/>
      <use xlink:href="#DejaVuSans-6f" transform="translate(294.380859 0)"/>
      <use xlink:href="#DejaVuSans-63" transform="translate(355.5625 0)"/>
      <use xlink:href="#DejaVuSans-6f" transform="translate(410.542969 0)"/>
      <use xlink:href="#DejaVuSans-63" transform="translate(471.724609 0)"/>
      <use xlink:href="#DejaVuSans-63" transform="translate(526.705078 0)"/>
      <use xlink:href="#DejaVuSans-75" transform="translate(581.685547 0)"/>
      <use xlink:href="#DejaVuSans-73" transform="translate(645.064453 0)"/>
      <use xlink:href="#DejaVuSans-5f" transform="translate(697.164062 0)"/>
      <use xlink:href="#DejaVuSans-70" transform="translate(747.164062 0)"/>
      <use xlink:href="#DejaVuSans-6e" transform="translate(810.640625 0)"/>
      <use xlink:href="#DejaVuSans-65" transform="translate(874.019531 0)"/>
      <use xlink:href="#DejaVuSans-75" transform="translate(935.542969 0)"/>
      <use xlink:href="#DejaVuSans-6d" transform="translate(998.921875 0)"/>
      <use xlink:href="#DejaVuSans-6f" transform="translate(1096.333984 0)"/>
      <use xlink:href="#DejaVuSans-6e" transform="translate(1157.515625 0)"/>
      <use xlink:href="#DejaVuSans-69" transform="translate(1220.894531 0)"/>
      <use xlink:href="#DejaVuSans-61" transform="translate(1248.677734 0)"/>
      <use xlink:href="#DejaVuSans-65" transform="translate(1309.957031 0)"/>
     </g>
    </g>
   </g>
  </g>
 </g>
 <defs>
  <clipPath id="p7c2ffd86ce">
   <rect x="54.02" y="26.88" width="583.18" height="359.848"/>
  </clipPath>
 </defs>
</svg>
